<?xml version="1.0" encoding="iso-8859-1"?>
<!-- Generator: Adobe Illustrator 19.0.0, SVG Export Plug-In . SVG Version: 6.00 Build 0)  -->
<svg version="1.1" id="Layer_1" xmlns="http://www.w3.org/2000/svg" xmlns:xlink="http://www.w3.org/1999/xlink" x="0px" y="0px"
	 viewBox="0 0 512.001 512.001" style="enable-background:new 0 0 512.001 512.001;" xml:space="preserve">
<path style="fill:#90A4AE;" d="M79.801,506.861c-6.854,6.854-17.966,6.854-24.82,0L5.141,457.021c-6.854-6.854-6.854-17.966,0-24.82
	L402.069,35.273c6.854-6.854,17.966-6.854,24.82,0l49.839,49.839c6.854,6.854,6.854,17.966,0,24.82L79.801,506.861z"/>
<g>
	
		<rect x="281.867" y="160.504" transform="matrix(0.7071 -0.7071 0.7071 0.7071 -63.3309 273.6965)" style="fill:#90A4AE;" width="33.697" height="105.584"/>
	<path style="fill:#90A4AE;" d="M476.728,85.112l-25.053-25.053L29.928,481.808l25.053,25.053c6.854,6.854,17.966,6.854,24.82,0
		l396.927-396.928C483.583,103.078,483.583,91.966,476.728,85.112z"/>
</g>
<path style="fill:#90A4AE;" d="M425.996,285.363c-8.773,8.773-22.997,8.773-31.77,0L226.638,117.775
	c-8.773-8.773-8.773-22.997,0-31.77l79.426-79.426c8.773-8.773,22.997-8.773,31.77,0l167.588,167.588
	c8.772,8.773,8.772,22.997,0,31.77L425.996,285.363z"/>
<path style="fill:#90A4AE;" d="M505.421,174.167l-84.149-84.149L310.076,201.214l84.149,84.149c8.774,8.773,22.997,8.773,31.77,0
	l79.426-79.426C514.194,197.165,514.194,182.941,505.421,174.167z"/>
<g>
</g>
<g>
</g>
<g>
</g>
<g>
</g>
<g>
</g>
<g>
</g>
<g>
</g>
<g>
</g>
<g>
</g>
<g>
</g>
<g>
</g>
<g>
</g>
<g>
</g>
<g>
</g>
<g>
</g>
</svg>
