<?xml version="1.0" encoding="iso-8859-1"?>
<!-- Generator: Adobe Illustrator 19.0.0, SVG Export Plug-In . SVG Version: 6.00 Build 0)  -->
<svg version="1.1" id="Layer_1" xmlns="http://www.w3.org/2000/svg" xmlns:xlink="http://www.w3.org/1999/xlink" x="0px" y="0px"
	 viewBox="0 0 48 48" style="enable-background:new 0 0 48 48;" xml:space="preserve">
<g transform="translate(1 1)">
	<g>
		<path d="M357.4,24.6h-59.733V7.533c0-5.12-3.413-8.533-8.533-8.533h-68.267c-5.12,0-8.533,3.413-8.533,8.533V24.6H152.6
			c-14.507,0-25.6,11.093-25.6,25.6v85.333c0,14.507,11.093,25.6,25.6,25.6h59.733V255v221.867c0,18.773,15.36,34.133,34.133,34.133
			h17.067c18.773,0,34.133-15.36,34.133-34.133V255v-93.867H357.4c14.507,0,25.6-11.093,25.6-25.6V50.2
			C383,35.693,371.907,24.6,357.4,24.6z M229.4,16.067h51.2V24.6h-51.2V16.067z M280.6,476.867c0,9.387-7.68,17.067-17.067,17.067
			h-17.067c-9.387,0-17.067-7.68-17.067-17.067v-8.533h17.067c5.12,0,8.533-3.413,8.533-8.533c0-5.12-3.413-8.533-8.533-8.533H229.4
			V434.2h17.067c5.12,0,8.533-3.413,8.533-8.533s-3.413-8.533-8.533-8.533H229.4v-153.6h51.2V476.867z M280.6,246.467h-51.2v-85.333
			h51.2V246.467z M365.933,135.533c0,5.12-3.413,8.533-8.533,8.533h-68.267h-68.267H152.6c-5.12,0-8.533-3.413-8.533-8.533V50.2
			c0-4.267,4.267-8.533,8.533-8.533h68.267h68.267H357.4c5.12,0,8.533,3.413,8.533,8.533V135.533z"/>
	</g>
</g>
<g>
</g>
<g>
</g>
<g>
</g>
<g>
</g>
<g>
</g>
<g>
</g>
<g>
</g>
<g>
</g>
<g>
</g>
<g>
</g>
<g>
</g>
<g>
</g>
<g>
</g>
<g>
</g>
<g>
</g>
</svg>
